<mxfile host="Electron" agent="Mozilla/5.0 (Windows NT 10.0; Win64; x64) AppleWebKit/537.36 (KHTML, like Gecko) draw.io/26.2.15 Chrome/134.0.6998.205 Electron/35.2.1 Safari/537.36" version="26.2.15">
  <diagram name="Página-1" id="2uaV812msRMwG7gX_3Rn">
    <mxGraphModel dx="813" dy="487" grid="1" gridSize="10" guides="1" tooltips="1" connect="1" arrows="1" fold="1" page="1" pageScale="1" pageWidth="827" pageHeight="1169" math="0" shadow="0">
      <root>
        <mxCell id="0" />
        <mxCell id="1" parent="0" />
        <mxCell id="tJNTf8P16CwmncWXG5HQ-1" value="Usuário" style="whiteSpace=wrap;html=1;align=center;" parent="1" vertex="1">
          <mxGeometry x="1120" y="350" width="100" height="40" as="geometry" />
        </mxCell>
        <mxCell id="tJNTf8P16CwmncWXG5HQ-2" value="Endereço" style="whiteSpace=wrap;html=1;align=center;" parent="1" vertex="1">
          <mxGeometry x="650" y="350" width="100" height="40" as="geometry" />
        </mxCell>
        <mxCell id="tJNTf8P16CwmncWXG5HQ-4" value="Pertence&lt;div&gt;Utiliza&lt;/div&gt;" style="shape=rhombus;perimeter=rhombusPerimeter;whiteSpace=wrap;html=1;align=center;" parent="1" vertex="1">
          <mxGeometry x="640" y="510" width="120" height="60" as="geometry" />
        </mxCell>
        <mxCell id="tJNTf8P16CwmncWXG5HQ-10" value="Produto" style="whiteSpace=wrap;html=1;align=center;" parent="1" vertex="1">
          <mxGeometry x="200" y="690" width="100" height="40" as="geometry" />
        </mxCell>
        <mxCell id="LPjeL-LabRUgR5Mh7KNn-1" value="Possuir&lt;br&gt;&lt;div&gt;Pertence&lt;/div&gt;" style="shape=rhombus;perimeter=rhombusPerimeter;whiteSpace=wrap;html=1;align=center;" parent="1" vertex="1">
          <mxGeometry x="870" y="340" width="120" height="60" as="geometry" />
        </mxCell>
        <mxCell id="LPjeL-LabRUgR5Mh7KNn-6" value="Contêm&lt;div&gt;Está&lt;/div&gt;" style="shape=rhombus;perimeter=rhombusPerimeter;whiteSpace=wrap;html=1;align=center;" parent="1" vertex="1">
          <mxGeometry x="414" y="680" width="120" height="60" as="geometry" />
        </mxCell>
        <mxCell id="LPjeL-LabRUgR5Mh7KNn-9" value="M" style="text;html=1;align=center;verticalAlign=middle;whiteSpace=wrap;rounded=0;" parent="1" vertex="1">
          <mxGeometry x="290" y="710" width="60" height="30" as="geometry" />
        </mxCell>
        <mxCell id="LPjeL-LabRUgR5Mh7KNn-10" value="M" style="text;html=1;align=center;verticalAlign=middle;whiteSpace=wrap;rounded=0;" parent="1" vertex="1">
          <mxGeometry x="590" y="710" width="60" height="30" as="geometry" />
        </mxCell>
        <mxCell id="tGjzgIWVcBgmSlzOQq5f-1" value="Nome" style="ellipse;whiteSpace=wrap;html=1;align=center;" parent="1" vertex="1">
          <mxGeometry x="1250" y="430" width="100" height="40" as="geometry" />
        </mxCell>
        <mxCell id="tGjzgIWVcBgmSlzOQq5f-3" value="Telefone" style="ellipse;whiteSpace=wrap;html=1;align=center;" parent="1" vertex="1">
          <mxGeometry x="1250" y="350" width="100" height="40" as="geometry" />
        </mxCell>
        <mxCell id="tGjzgIWVcBgmSlzOQq5f-4" value="Data de nascimento" style="ellipse;whiteSpace=wrap;html=1;align=center;" parent="1" vertex="1">
          <mxGeometry x="1250" y="310" width="100" height="40" as="geometry" />
        </mxCell>
        <mxCell id="tGjzgIWVcBgmSlzOQq5f-6" value="Senha" style="ellipse;whiteSpace=wrap;html=1;align=center;" parent="1" vertex="1">
          <mxGeometry x="1050" y="270" width="100" height="40" as="geometry" />
        </mxCell>
        <mxCell id="tGjzgIWVcBgmSlzOQq5f-10" style="edgeStyle=orthogonalEdgeStyle;rounded=0;orthogonalLoop=1;jettySize=auto;html=1;exitX=0.5;exitY=1;exitDx=0;exitDy=0;" parent="1" edge="1">
          <mxGeometry relative="1" as="geometry">
            <mxPoint x="1300" y="450" as="sourcePoint" />
            <mxPoint x="1300" y="450" as="targetPoint" />
          </mxGeometry>
        </mxCell>
        <mxCell id="tGjzgIWVcBgmSlzOQq5f-16" value="CEP" style="ellipse;whiteSpace=wrap;html=1;align=center;" parent="1" vertex="1">
          <mxGeometry x="460" y="410" width="100" height="40" as="geometry" />
        </mxCell>
        <mxCell id="tGjzgIWVcBgmSlzOQq5f-19" value="Estado" style="ellipse;whiteSpace=wrap;html=1;align=center;" parent="1" vertex="1">
          <mxGeometry x="560" y="250" width="100" height="40" as="geometry" />
        </mxCell>
        <mxCell id="tGjzgIWVcBgmSlzOQq5f-20" value="Cidade" style="ellipse;whiteSpace=wrap;html=1;align=center;" parent="1" vertex="1">
          <mxGeometry x="460" y="290" width="100" height="40" as="geometry" />
        </mxCell>
        <mxCell id="tGjzgIWVcBgmSlzOQq5f-21" value="Bairro" style="ellipse;whiteSpace=wrap;html=1;align=center;" parent="1" vertex="1">
          <mxGeometry x="460" y="450" width="100" height="40" as="geometry" />
        </mxCell>
        <mxCell id="tGjzgIWVcBgmSlzOQq5f-22" value="Logradouro" style="ellipse;whiteSpace=wrap;html=1;align=center;" parent="1" vertex="1">
          <mxGeometry x="460" y="330" width="100" height="40" as="geometry" />
        </mxCell>
        <mxCell id="tGjzgIWVcBgmSlzOQq5f-23" value="Número" style="ellipse;whiteSpace=wrap;html=1;align=center;" parent="1" vertex="1">
          <mxGeometry x="660" y="250" width="100" height="40" as="geometry" />
        </mxCell>
        <mxCell id="tGjzgIWVcBgmSlzOQq5f-24" value="Complemento" style="ellipse;whiteSpace=wrap;html=1;align=center;" parent="1" vertex="1">
          <mxGeometry x="460" y="370" width="100" height="40" as="geometry" />
        </mxCell>
        <mxCell id="tGjzgIWVcBgmSlzOQq5f-47" value="Data_de_pagam" style="ellipse;whiteSpace=wrap;html=1;align=center;" parent="1" vertex="1">
          <mxGeometry x="550" y="750" width="100" height="40" as="geometry" />
        </mxCell>
        <mxCell id="tGjzgIWVcBgmSlzOQq5f-48" value="Valor_total" style="ellipse;whiteSpace=wrap;html=1;align=center;" parent="1" vertex="1">
          <mxGeometry x="750" y="750" width="100" height="40" as="geometry" />
        </mxCell>
        <mxCell id="tGjzgIWVcBgmSlzOQq5f-49" value="QTD_de_itens" style="ellipse;whiteSpace=wrap;html=1;align=center;" parent="1" vertex="1">
          <mxGeometry x="650" y="750" width="100" height="40" as="geometry" />
        </mxCell>
        <mxCell id="tGjzgIWVcBgmSlzOQq5f-50" value="Método_de_pag" style="ellipse;whiteSpace=wrap;html=1;align=center;" parent="1" vertex="1">
          <mxGeometry x="590" y="600" width="100" height="40" as="geometry" />
        </mxCell>
        <mxCell id="tGjzgIWVcBgmSlzOQq5f-56" value="Pedido" style="whiteSpace=wrap;html=1;align=center;" parent="1" vertex="1">
          <mxGeometry x="650" y="690" width="100" height="40" as="geometry" />
        </mxCell>
        <mxCell id="tGjzgIWVcBgmSlzOQq5f-66" value="" style="endArrow=none;html=1;rounded=0;entryX=0.5;entryY=0;entryDx=0;entryDy=0;exitX=0.5;exitY=1;exitDx=0;exitDy=0;" parent="1" source="tJNTf8P16CwmncWXG5HQ-4" target="tGjzgIWVcBgmSlzOQq5f-56" edge="1">
          <mxGeometry relative="1" as="geometry">
            <mxPoint x="710" y="580" as="sourcePoint" />
            <mxPoint x="740" y="660" as="targetPoint" />
          </mxGeometry>
        </mxCell>
        <mxCell id="tGjzgIWVcBgmSlzOQq5f-67" value="" style="endArrow=none;html=1;rounded=0;entryX=0.5;entryY=0;entryDx=0;entryDy=0;exitX=0.5;exitY=1;exitDx=0;exitDy=0;" parent="1" source="tJNTf8P16CwmncWXG5HQ-2" target="tJNTf8P16CwmncWXG5HQ-4" edge="1">
          <mxGeometry relative="1" as="geometry">
            <mxPoint x="710" y="410" as="sourcePoint" />
            <mxPoint x="720" y="500" as="targetPoint" />
          </mxGeometry>
        </mxCell>
        <mxCell id="tGjzgIWVcBgmSlzOQq5f-70" value="" style="endArrow=none;html=1;rounded=0;exitX=0;exitY=0.5;exitDx=0;exitDy=0;entryX=1;entryY=0.5;entryDx=0;entryDy=0;" parent="1" source="tGjzgIWVcBgmSlzOQq5f-123" target="tJNTf8P16CwmncWXG5HQ-2" edge="1">
          <mxGeometry relative="1" as="geometry">
            <mxPoint x="860" y="380" as="sourcePoint" />
            <mxPoint x="760" y="380" as="targetPoint" />
            <Array as="points" />
          </mxGeometry>
        </mxCell>
        <mxCell id="tGjzgIWVcBgmSlzOQq5f-71" value="" style="endArrow=none;html=1;rounded=0;entryX=1;entryY=0.5;entryDx=0;entryDy=0;exitX=0;exitY=0.5;exitDx=0;exitDy=0;" parent="1" source="tJNTf8P16CwmncWXG5HQ-1" target="LPjeL-LabRUgR5Mh7KNn-1" edge="1">
          <mxGeometry relative="1" as="geometry">
            <mxPoint x="1100" y="380" as="sourcePoint" />
            <mxPoint x="1000" y="390" as="targetPoint" />
            <Array as="points">
              <mxPoint x="1070" y="369.47" />
            </Array>
          </mxGeometry>
        </mxCell>
        <mxCell id="tGjzgIWVcBgmSlzOQq5f-72" value="Pertence&lt;div&gt;Realiza&lt;/div&gt;" style="shape=rhombus;perimeter=rhombusPerimeter;whiteSpace=wrap;html=1;align=center;" parent="1" vertex="1">
          <mxGeometry x="1110" y="680" width="120" height="60" as="geometry" />
        </mxCell>
        <mxCell id="tGjzgIWVcBgmSlzOQq5f-73" value="" style="endArrow=none;html=1;rounded=0;exitX=1;exitY=0.5;exitDx=0;exitDy=0;entryX=0;entryY=0.5;entryDx=0;entryDy=0;" parent="1" source="tGjzgIWVcBgmSlzOQq5f-127" target="tGjzgIWVcBgmSlzOQq5f-72" edge="1">
          <mxGeometry relative="1" as="geometry">
            <mxPoint x="940" y="560" as="sourcePoint" />
            <mxPoint x="1100" y="560" as="targetPoint" />
          </mxGeometry>
        </mxCell>
        <mxCell id="tGjzgIWVcBgmSlzOQq5f-74" value="" style="endArrow=none;html=1;rounded=0;exitX=0.5;exitY=1;exitDx=0;exitDy=0;entryX=0.5;entryY=0;entryDx=0;entryDy=0;" parent="1" source="tJNTf8P16CwmncWXG5HQ-1" target="tGjzgIWVcBgmSlzOQq5f-72" edge="1">
          <mxGeometry relative="1" as="geometry">
            <mxPoint x="940" y="560" as="sourcePoint" />
            <mxPoint x="1100" y="560" as="targetPoint" />
          </mxGeometry>
        </mxCell>
        <mxCell id="tGjzgIWVcBgmSlzOQq5f-75" value="1" style="text;html=1;align=center;verticalAlign=middle;whiteSpace=wrap;rounded=0;" parent="1" vertex="1">
          <mxGeometry x="700" y="390" width="60" height="30" as="geometry" />
        </mxCell>
        <mxCell id="tGjzgIWVcBgmSlzOQq5f-76" value="M" style="text;html=1;align=center;verticalAlign=middle;whiteSpace=wrap;rounded=0;" parent="1" vertex="1">
          <mxGeometry x="700" y="660" width="60" height="30" as="geometry" />
        </mxCell>
        <mxCell id="tGjzgIWVcBgmSlzOQq5f-77" value="M" style="text;html=1;align=center;verticalAlign=middle;whiteSpace=wrap;rounded=0;" parent="1" vertex="1">
          <mxGeometry x="750" y="340" width="60" height="30" as="geometry" />
        </mxCell>
        <mxCell id="tGjzgIWVcBgmSlzOQq5f-78" value="N" style="text;html=1;align=center;verticalAlign=middle;whiteSpace=wrap;rounded=0;" parent="1" vertex="1">
          <mxGeometry x="1060" y="340" width="60" height="30" as="geometry" />
        </mxCell>
        <mxCell id="tGjzgIWVcBgmSlzOQq5f-79" value="1" style="text;html=1;align=center;verticalAlign=middle;whiteSpace=wrap;rounded=0;" parent="1" vertex="1">
          <mxGeometry x="1170" y="390" width="60" height="30" as="geometry" />
        </mxCell>
        <mxCell id="tGjzgIWVcBgmSlzOQq5f-80" value="M" style="text;html=1;align=center;verticalAlign=middle;whiteSpace=wrap;rounded=0;" parent="1" vertex="1">
          <mxGeometry x="750" y="710" width="60" height="30" as="geometry" />
        </mxCell>
        <mxCell id="tGjzgIWVcBgmSlzOQq5f-81" value="" style="endArrow=none;html=1;rounded=0;entryX=0.5;entryY=0;entryDx=0;entryDy=0;exitX=0.5;exitY=1;exitDx=0;exitDy=0;" parent="1" source="tGjzgIWVcBgmSlzOQq5f-56" target="tGjzgIWVcBgmSlzOQq5f-49" edge="1">
          <mxGeometry relative="1" as="geometry">
            <mxPoint x="230" y="740" as="sourcePoint" />
            <mxPoint x="390" y="740" as="targetPoint" />
          </mxGeometry>
        </mxCell>
        <mxCell id="tGjzgIWVcBgmSlzOQq5f-82" value="" style="endArrow=none;html=1;rounded=0;entryX=0.5;entryY=1;entryDx=0;entryDy=0;exitX=0.5;exitY=0;exitDx=0;exitDy=0;" parent="1" source="tGjzgIWVcBgmSlzOQq5f-47" target="tGjzgIWVcBgmSlzOQq5f-56" edge="1">
          <mxGeometry relative="1" as="geometry">
            <mxPoint x="480" y="810" as="sourcePoint" />
            <mxPoint x="390" y="740" as="targetPoint" />
          </mxGeometry>
        </mxCell>
        <mxCell id="tGjzgIWVcBgmSlzOQq5f-83" value="" style="endArrow=none;html=1;rounded=0;exitX=0.5;exitY=0;exitDx=0;exitDy=0;entryX=0.5;entryY=1;entryDx=0;entryDy=0;" parent="1" source="tGjzgIWVcBgmSlzOQq5f-48" target="tGjzgIWVcBgmSlzOQq5f-56" edge="1">
          <mxGeometry relative="1" as="geometry">
            <mxPoint x="230" y="740" as="sourcePoint" />
            <mxPoint x="390" y="740" as="targetPoint" />
          </mxGeometry>
        </mxCell>
        <mxCell id="tGjzgIWVcBgmSlzOQq5f-84" value="" style="endArrow=none;html=1;rounded=0;exitX=1;exitY=0.5;exitDx=0;exitDy=0;entryX=0.5;entryY=0;entryDx=0;entryDy=0;" parent="1" source="tGjzgIWVcBgmSlzOQq5f-125" target="tGjzgIWVcBgmSlzOQq5f-56" edge="1">
          <mxGeometry relative="1" as="geometry">
            <mxPoint x="230" y="740" as="sourcePoint" />
            <mxPoint x="390" y="740" as="targetPoint" />
          </mxGeometry>
        </mxCell>
        <mxCell id="tGjzgIWVcBgmSlzOQq5f-85" value="" style="endArrow=none;html=1;rounded=0;exitX=1;exitY=0.5;exitDx=0;exitDy=0;entryX=0.5;entryY=0;entryDx=0;entryDy=0;" parent="1" target="tGjzgIWVcBgmSlzOQq5f-56" edge="1">
          <mxGeometry relative="1" as="geometry">
            <mxPoint x="650" y="660" as="sourcePoint" />
            <mxPoint x="390" y="740" as="targetPoint" />
          </mxGeometry>
        </mxCell>
        <mxCell id="tGjzgIWVcBgmSlzOQq5f-86" value="" style="endArrow=none;html=1;rounded=0;exitX=1;exitY=0.5;exitDx=0;exitDy=0;entryX=0;entryY=0.5;entryDx=0;entryDy=0;" parent="1" source="tGjzgIWVcBgmSlzOQq5f-21" target="tJNTf8P16CwmncWXG5HQ-2" edge="1">
          <mxGeometry relative="1" as="geometry">
            <mxPoint x="610" y="460" as="sourcePoint" />
            <mxPoint x="770" y="460" as="targetPoint" />
          </mxGeometry>
        </mxCell>
        <mxCell id="tGjzgIWVcBgmSlzOQq5f-87" value="" style="endArrow=none;html=1;rounded=0;exitX=1;exitY=0.5;exitDx=0;exitDy=0;entryX=0;entryY=0.5;entryDx=0;entryDy=0;" parent="1" source="tGjzgIWVcBgmSlzOQq5f-16" target="tJNTf8P16CwmncWXG5HQ-2" edge="1">
          <mxGeometry relative="1" as="geometry">
            <mxPoint x="610" y="460" as="sourcePoint" />
            <mxPoint x="770" y="460" as="targetPoint" />
          </mxGeometry>
        </mxCell>
        <mxCell id="tGjzgIWVcBgmSlzOQq5f-88" value="" style="endArrow=none;html=1;rounded=0;exitX=1;exitY=0.5;exitDx=0;exitDy=0;entryX=0;entryY=0.5;entryDx=0;entryDy=0;" parent="1" source="tGjzgIWVcBgmSlzOQq5f-24" target="tJNTf8P16CwmncWXG5HQ-2" edge="1">
          <mxGeometry relative="1" as="geometry">
            <mxPoint x="610" y="460" as="sourcePoint" />
            <mxPoint x="770" y="460" as="targetPoint" />
          </mxGeometry>
        </mxCell>
        <mxCell id="tGjzgIWVcBgmSlzOQq5f-89" value="" style="endArrow=none;html=1;rounded=0;exitX=1;exitY=0.5;exitDx=0;exitDy=0;entryX=0;entryY=0.5;entryDx=0;entryDy=0;" parent="1" source="tGjzgIWVcBgmSlzOQq5f-22" target="tJNTf8P16CwmncWXG5HQ-2" edge="1">
          <mxGeometry relative="1" as="geometry">
            <mxPoint x="610" y="460" as="sourcePoint" />
            <mxPoint x="770" y="460" as="targetPoint" />
          </mxGeometry>
        </mxCell>
        <mxCell id="tGjzgIWVcBgmSlzOQq5f-90" value="" style="endArrow=none;html=1;rounded=0;exitX=1;exitY=0.5;exitDx=0;exitDy=0;entryX=0;entryY=0.5;entryDx=0;entryDy=0;" parent="1" source="tGjzgIWVcBgmSlzOQq5f-20" target="tJNTf8P16CwmncWXG5HQ-2" edge="1">
          <mxGeometry relative="1" as="geometry">
            <mxPoint x="610" y="460" as="sourcePoint" />
            <mxPoint x="770" y="460" as="targetPoint" />
          </mxGeometry>
        </mxCell>
        <mxCell id="tGjzgIWVcBgmSlzOQq5f-91" value="" style="endArrow=none;html=1;rounded=0;exitX=1;exitY=1;exitDx=0;exitDy=0;entryX=0;entryY=0.5;entryDx=0;entryDy=0;" parent="1" target="tJNTf8P16CwmncWXG5HQ-2" edge="1">
          <mxGeometry relative="1" as="geometry">
            <mxPoint x="545.1857720015898" y="284.20963869294974" as="sourcePoint" />
            <mxPoint x="770" y="460" as="targetPoint" />
          </mxGeometry>
        </mxCell>
        <mxCell id="tGjzgIWVcBgmSlzOQq5f-92" value="" style="endArrow=none;html=1;rounded=0;exitX=0.5;exitY=1;exitDx=0;exitDy=0;entryX=0.5;entryY=0;entryDx=0;entryDy=0;" parent="1" source="tGjzgIWVcBgmSlzOQq5f-19" target="tJNTf8P16CwmncWXG5HQ-2" edge="1">
          <mxGeometry relative="1" as="geometry">
            <mxPoint x="610" y="460" as="sourcePoint" />
            <mxPoint x="770" y="460" as="targetPoint" />
          </mxGeometry>
        </mxCell>
        <mxCell id="tGjzgIWVcBgmSlzOQq5f-93" value="" style="endArrow=none;html=1;rounded=0;exitX=0.5;exitY=1;exitDx=0;exitDy=0;entryX=0.5;entryY=0;entryDx=0;entryDy=0;" parent="1" source="tGjzgIWVcBgmSlzOQq5f-23" target="tJNTf8P16CwmncWXG5HQ-2" edge="1">
          <mxGeometry relative="1" as="geometry">
            <mxPoint x="610" y="460" as="sourcePoint" />
            <mxPoint x="770" y="460" as="targetPoint" />
          </mxGeometry>
        </mxCell>
        <mxCell id="tGjzgIWVcBgmSlzOQq5f-94" value="" style="endArrow=none;html=1;rounded=0;entryX=0.5;entryY=1;entryDx=0;entryDy=0;exitX=0.5;exitY=0;exitDx=0;exitDy=0;" parent="1" source="tGjzgIWVcBgmSlzOQq5f-141" target="LPjeL-LabRUgR5Mh7KNn-1" edge="1">
          <mxGeometry relative="1" as="geometry">
            <mxPoint x="820" y="400" as="sourcePoint" />
            <mxPoint x="1050" y="430" as="targetPoint" />
          </mxGeometry>
        </mxCell>
        <mxCell id="tGjzgIWVcBgmSlzOQq5f-100" value="" style="endArrow=none;html=1;rounded=0;entryX=0.5;entryY=1;entryDx=0;entryDy=0;exitX=0.5;exitY=0;exitDx=0;exitDy=0;" parent="1" source="tGjzgIWVcBgmSlzOQq5f-143" target="LPjeL-LabRUgR5Mh7KNn-1" edge="1">
          <mxGeometry relative="1" as="geometry">
            <mxPoint x="1040" y="440" as="sourcePoint" />
            <mxPoint x="1050" y="430" as="targetPoint" />
          </mxGeometry>
        </mxCell>
        <mxCell id="tGjzgIWVcBgmSlzOQq5f-101" value="" style="endArrow=none;html=1;rounded=0;exitX=0.5;exitY=1;exitDx=0;exitDy=0;entryX=0.5;entryY=0;entryDx=0;entryDy=0;" parent="1" source="tGjzgIWVcBgmSlzOQq5f-6" target="tJNTf8P16CwmncWXG5HQ-1" edge="1">
          <mxGeometry relative="1" as="geometry">
            <mxPoint x="1170" y="360" as="sourcePoint" />
            <mxPoint x="1330" y="360" as="targetPoint" />
          </mxGeometry>
        </mxCell>
        <mxCell id="tGjzgIWVcBgmSlzOQq5f-102" value="" style="endArrow=none;html=1;rounded=0;exitX=0.5;exitY=1;exitDx=0;exitDy=0;entryX=0.5;entryY=0;entryDx=0;entryDy=0;" parent="1" target="tJNTf8P16CwmncWXG5HQ-1" edge="1">
          <mxGeometry relative="1" as="geometry">
            <mxPoint x="1200" y="310" as="sourcePoint" />
            <mxPoint x="1170" y="330" as="targetPoint" />
          </mxGeometry>
        </mxCell>
        <mxCell id="tGjzgIWVcBgmSlzOQq5f-103" value="" style="endArrow=none;html=1;rounded=0;exitX=0;exitY=1;exitDx=0;exitDy=0;entryX=0.5;entryY=0;entryDx=0;entryDy=0;" parent="1" target="tJNTf8P16CwmncWXG5HQ-1" edge="1">
          <mxGeometry relative="1" as="geometry">
            <mxPoint x="1264.8142279984017" y="304.20963869295304" as="sourcePoint" />
            <mxPoint x="1330" y="360" as="targetPoint" />
          </mxGeometry>
        </mxCell>
        <mxCell id="tGjzgIWVcBgmSlzOQq5f-105" value="" style="endArrow=none;html=1;rounded=0;exitX=1;exitY=0.5;exitDx=0;exitDy=0;entryX=0;entryY=0.5;entryDx=0;entryDy=0;" parent="1" source="tJNTf8P16CwmncWXG5HQ-1" target="tGjzgIWVcBgmSlzOQq5f-4" edge="1">
          <mxGeometry relative="1" as="geometry">
            <mxPoint x="1170" y="360" as="sourcePoint" />
            <mxPoint x="1330" y="360" as="targetPoint" />
          </mxGeometry>
        </mxCell>
        <mxCell id="tGjzgIWVcBgmSlzOQq5f-106" value="" style="endArrow=none;html=1;rounded=0;exitX=1;exitY=0.5;exitDx=0;exitDy=0;entryX=0;entryY=0.5;entryDx=0;entryDy=0;" parent="1" source="tJNTf8P16CwmncWXG5HQ-1" target="tGjzgIWVcBgmSlzOQq5f-3" edge="1">
          <mxGeometry relative="1" as="geometry">
            <mxPoint x="1170" y="360" as="sourcePoint" />
            <mxPoint x="1330" y="360" as="targetPoint" />
          </mxGeometry>
        </mxCell>
        <mxCell id="tGjzgIWVcBgmSlzOQq5f-107" value="" style="endArrow=none;html=1;rounded=0;entryX=0;entryY=0.5;entryDx=0;entryDy=0;exitX=1;exitY=0.5;exitDx=0;exitDy=0;" parent="1" source="tJNTf8P16CwmncWXG5HQ-1" edge="1">
          <mxGeometry relative="1" as="geometry">
            <mxPoint x="1170" y="360" as="sourcePoint" />
            <mxPoint x="1250.0000000000055" y="410" as="targetPoint" />
          </mxGeometry>
        </mxCell>
        <mxCell id="tGjzgIWVcBgmSlzOQq5f-108" value="" style="endArrow=none;html=1;rounded=0;entryX=0;entryY=0.5;entryDx=0;entryDy=0;exitX=1;exitY=0.5;exitDx=0;exitDy=0;" parent="1" source="tJNTf8P16CwmncWXG5HQ-1" target="tGjzgIWVcBgmSlzOQq5f-1" edge="1">
          <mxGeometry relative="1" as="geometry">
            <mxPoint x="1430" y="400" as="sourcePoint" />
            <mxPoint x="1330" y="360" as="targetPoint" />
          </mxGeometry>
        </mxCell>
        <mxCell id="tGjzgIWVcBgmSlzOQq5f-109" value="Nome" style="ellipse;whiteSpace=wrap;html=1;align=center;" parent="1" vertex="1">
          <mxGeometry x="50" y="610" width="100" height="40" as="geometry" />
        </mxCell>
        <mxCell id="tGjzgIWVcBgmSlzOQq5f-110" value="Quantidade_estoq" style="ellipse;whiteSpace=wrap;html=1;align=center;" parent="1" vertex="1">
          <mxGeometry x="50" y="650" width="100" height="40" as="geometry" />
        </mxCell>
        <mxCell id="tGjzgIWVcBgmSlzOQq5f-111" value="Valor_unitario" style="ellipse;whiteSpace=wrap;html=1;align=center;" parent="1" vertex="1">
          <mxGeometry x="50" y="690" width="100" height="40" as="geometry" />
        </mxCell>
        <mxCell id="tGjzgIWVcBgmSlzOQq5f-112" value="Descrição" style="ellipse;whiteSpace=wrap;html=1;align=center;" parent="1" vertex="1">
          <mxGeometry x="50" y="730" width="100" height="40" as="geometry" />
        </mxCell>
        <mxCell id="tGjzgIWVcBgmSlzOQq5f-113" value="ID_Produto" style="ellipse;whiteSpace=wrap;html=1;align=center;" parent="1" vertex="1">
          <mxGeometry x="50" y="770" width="100" height="40" as="geometry" />
        </mxCell>
        <mxCell id="tGjzgIWVcBgmSlzOQq5f-114" value="" style="endArrow=none;html=1;rounded=0;exitX=1;exitY=0.5;exitDx=0;exitDy=0;entryX=0;entryY=0.5;entryDx=0;entryDy=0;" parent="1" source="tGjzgIWVcBgmSlzOQq5f-109" target="tJNTf8P16CwmncWXG5HQ-10" edge="1">
          <mxGeometry relative="1" as="geometry">
            <mxPoint x="220" y="670" as="sourcePoint" />
            <mxPoint x="380" y="670" as="targetPoint" />
          </mxGeometry>
        </mxCell>
        <mxCell id="tGjzgIWVcBgmSlzOQq5f-115" value="" style="endArrow=none;html=1;rounded=0;exitX=1;exitY=0.5;exitDx=0;exitDy=0;entryX=0;entryY=0.5;entryDx=0;entryDy=0;" parent="1" source="tGjzgIWVcBgmSlzOQq5f-110" target="tJNTf8P16CwmncWXG5HQ-10" edge="1">
          <mxGeometry relative="1" as="geometry">
            <mxPoint x="220" y="620" as="sourcePoint" />
            <mxPoint x="380" y="620" as="targetPoint" />
          </mxGeometry>
        </mxCell>
        <mxCell id="tGjzgIWVcBgmSlzOQq5f-116" value="" style="endArrow=none;html=1;rounded=0;exitX=1;exitY=0.5;exitDx=0;exitDy=0;entryX=0;entryY=0.5;entryDx=0;entryDy=0;" parent="1" source="tGjzgIWVcBgmSlzOQq5f-111" target="tJNTf8P16CwmncWXG5HQ-10" edge="1">
          <mxGeometry relative="1" as="geometry">
            <mxPoint x="220" y="670" as="sourcePoint" />
            <mxPoint x="380" y="670" as="targetPoint" />
          </mxGeometry>
        </mxCell>
        <mxCell id="tGjzgIWVcBgmSlzOQq5f-117" value="" style="endArrow=none;html=1;rounded=0;exitX=1;exitY=0.5;exitDx=0;exitDy=0;entryX=0;entryY=0.5;entryDx=0;entryDy=0;" parent="1" source="tGjzgIWVcBgmSlzOQq5f-112" target="tJNTf8P16CwmncWXG5HQ-10" edge="1">
          <mxGeometry relative="1" as="geometry">
            <mxPoint x="220" y="670" as="sourcePoint" />
            <mxPoint x="380" y="670" as="targetPoint" />
          </mxGeometry>
        </mxCell>
        <mxCell id="tGjzgIWVcBgmSlzOQq5f-118" value="" style="endArrow=none;html=1;rounded=0;exitX=1;exitY=0.5;exitDx=0;exitDy=0;entryX=0;entryY=0.5;entryDx=0;entryDy=0;" parent="1" source="tGjzgIWVcBgmSlzOQq5f-113" target="tJNTf8P16CwmncWXG5HQ-10" edge="1">
          <mxGeometry relative="1" as="geometry">
            <mxPoint x="220" y="670" as="sourcePoint" />
            <mxPoint x="380" y="670" as="targetPoint" />
          </mxGeometry>
        </mxCell>
        <mxCell id="tGjzgIWVcBgmSlzOQq5f-124" value="" style="endArrow=none;html=1;rounded=0;exitX=0;exitY=0.5;exitDx=0;exitDy=0;entryX=1;entryY=0.5;entryDx=0;entryDy=0;" parent="1" source="LPjeL-LabRUgR5Mh7KNn-1" target="tGjzgIWVcBgmSlzOQq5f-123" edge="1">
          <mxGeometry relative="1" as="geometry">
            <mxPoint x="870" y="370" as="sourcePoint" />
            <mxPoint x="750" y="370" as="targetPoint" />
            <Array as="points">
              <mxPoint x="830" y="369.47" />
            </Array>
          </mxGeometry>
        </mxCell>
        <mxCell id="tGjzgIWVcBgmSlzOQq5f-123" value="" style="ellipse;whiteSpace=wrap;html=1;aspect=fixed;" parent="1" vertex="1">
          <mxGeometry x="750" y="365" width="10" height="10" as="geometry" />
        </mxCell>
        <mxCell id="tGjzgIWVcBgmSlzOQq5f-126" value="" style="endArrow=none;html=1;rounded=0;exitX=1;exitY=0.5;exitDx=0;exitDy=0;entryX=0.5;entryY=0;entryDx=0;entryDy=0;" parent="1" source="tGjzgIWVcBgmSlzOQq5f-50" target="tGjzgIWVcBgmSlzOQq5f-125" edge="1">
          <mxGeometry relative="1" as="geometry">
            <mxPoint x="690" y="620" as="sourcePoint" />
            <mxPoint x="700" y="690" as="targetPoint" />
          </mxGeometry>
        </mxCell>
        <mxCell id="tGjzgIWVcBgmSlzOQq5f-125" value="" style="ellipse;whiteSpace=wrap;html=1;aspect=fixed;" parent="1" vertex="1">
          <mxGeometry x="695" y="680" width="10" height="10" as="geometry" />
        </mxCell>
        <mxCell id="tGjzgIWVcBgmSlzOQq5f-128" value="" style="endArrow=none;html=1;rounded=0;exitX=1;exitY=0.5;exitDx=0;exitDy=0;entryX=0;entryY=0.5;entryDx=0;entryDy=0;" parent="1" source="tGjzgIWVcBgmSlzOQq5f-56" target="tGjzgIWVcBgmSlzOQq5f-127" edge="1">
          <mxGeometry relative="1" as="geometry">
            <mxPoint x="750" y="710" as="sourcePoint" />
            <mxPoint x="1110" y="710" as="targetPoint" />
          </mxGeometry>
        </mxCell>
        <mxCell id="tGjzgIWVcBgmSlzOQq5f-127" value="" style="ellipse;whiteSpace=wrap;html=1;aspect=fixed;" parent="1" vertex="1">
          <mxGeometry x="750" y="705" width="10" height="10" as="geometry" />
        </mxCell>
        <mxCell id="tGjzgIWVcBgmSlzOQq5f-129" value="" style="endArrow=none;html=1;rounded=0;exitX=1;exitY=0;exitDx=0;exitDy=0;entryX=1;entryY=0.5;entryDx=0;entryDy=0;" parent="1" source="LPjeL-LabRUgR5Mh7KNn-10" target="LPjeL-LabRUgR5Mh7KNn-6" edge="1">
          <mxGeometry relative="1" as="geometry">
            <mxPoint x="640" y="710.53" as="sourcePoint" />
            <mxPoint x="540" y="720" as="targetPoint" />
            <Array as="points">
              <mxPoint x="600" y="710" />
            </Array>
          </mxGeometry>
        </mxCell>
        <mxCell id="tGjzgIWVcBgmSlzOQq5f-120" value="" style="ellipse;whiteSpace=wrap;html=1;aspect=fixed;" parent="1" vertex="1">
          <mxGeometry x="640" y="705" width="10" height="10" as="geometry" />
        </mxCell>
        <mxCell id="tGjzgIWVcBgmSlzOQq5f-133" value="" style="endArrow=none;html=1;rounded=0;exitX=0;exitY=0.5;exitDx=0;exitDy=0;entryX=1;entryY=0.5;entryDx=0;entryDy=0;" parent="1" source="LPjeL-LabRUgR5Mh7KNn-6" target="tJNTf8P16CwmncWXG5HQ-10" edge="1">
          <mxGeometry relative="1" as="geometry">
            <mxPoint x="410" y="730" as="sourcePoint" />
            <mxPoint x="364" y="740" as="targetPoint" />
            <Array as="points">
              <mxPoint x="364" y="710" />
            </Array>
          </mxGeometry>
        </mxCell>
        <mxCell id="tGjzgIWVcBgmSlzOQq5f-134" value="ID_Pedido" style="ellipse;whiteSpace=wrap;html=1;align=center;" parent="1" vertex="1">
          <mxGeometry x="420" y="590" width="100" height="40" as="geometry" />
        </mxCell>
        <mxCell id="tGjzgIWVcBgmSlzOQq5f-135" value="ID_Produto&lt;span style=&quot;color: rgba(0, 0, 0, 0); font-family: monospace; font-size: 0px; text-align: start; text-wrap-mode: nowrap;&quot;&gt;%3CmxGraphModel%3E%3Croot%3E%3CmxCell%20id%3D%220%22%2F%3E%3CmxCell%20id%3D%221%22%20parent%3D%220%22%2F%3E%3CmxCell%20id%3D%222%22%20value%3D%22ID_Pedido%22%20style%3D%22ellipse%3BwhiteSpace%3Dwrap%3Bhtml%3D1%3Balign%3Dcenter%3B%22%20vertex%3D%221%22%20parent%3D%221%22%3E%3CmxGeometry%20x%3D%22390%22%20y%3D%22820%22%20width%3D%22100%22%20height%3D%2240%22%20as%3D%22geometry%22%2F%3E%3C%2FmxCell%3E%3C%2Froot%3E%3C%2FmxGraphModel%3E&lt;/span&gt;" style="ellipse;whiteSpace=wrap;html=1;align=center;" parent="1" vertex="1">
          <mxGeometry x="320" y="590" width="100" height="40" as="geometry" />
        </mxCell>
        <mxCell id="tGjzgIWVcBgmSlzOQq5f-139" value="" style="endArrow=none;html=1;rounded=0;exitX=0.5;exitY=1;exitDx=0;exitDy=0;entryX=0.5;entryY=0;entryDx=0;entryDy=0;" parent="1" source="tGjzgIWVcBgmSlzOQq5f-135" target="LPjeL-LabRUgR5Mh7KNn-6" edge="1">
          <mxGeometry relative="1" as="geometry">
            <mxPoint x="410" y="610" as="sourcePoint" />
            <mxPoint x="570" y="610" as="targetPoint" />
          </mxGeometry>
        </mxCell>
        <mxCell id="tGjzgIWVcBgmSlzOQq5f-140" value="" style="endArrow=none;html=1;rounded=0;exitX=0.5;exitY=1;exitDx=0;exitDy=0;entryX=0.5;entryY=0;entryDx=0;entryDy=0;" parent="1" source="tGjzgIWVcBgmSlzOQq5f-134" target="LPjeL-LabRUgR5Mh7KNn-6" edge="1">
          <mxGeometry relative="1" as="geometry">
            <mxPoint x="410" y="610" as="sourcePoint" />
            <mxPoint x="570" y="610" as="targetPoint" />
          </mxGeometry>
        </mxCell>
        <mxCell id="tGjzgIWVcBgmSlzOQq5f-141" value="ID_Usuário" style="ellipse;whiteSpace=wrap;html=1;align=center;" parent="1" vertex="1">
          <mxGeometry x="830" y="420" width="100" height="40" as="geometry" />
        </mxCell>
        <mxCell id="tGjzgIWVcBgmSlzOQq5f-143" value="ID_Endereço" style="ellipse;whiteSpace=wrap;html=1;align=center;" parent="1" vertex="1">
          <mxGeometry x="930" y="420" width="100" height="40" as="geometry" />
        </mxCell>
        <mxCell id="Nohre5y979sdF1jWuuso-1" value="ID_Pedido" style="ellipse;whiteSpace=wrap;html=1;align=center;" vertex="1" parent="1">
          <mxGeometry x="550" y="640" width="100" height="40" as="geometry" />
        </mxCell>
        <mxCell id="Nohre5y979sdF1jWuuso-2" value="ID_Endereço" style="ellipse;whiteSpace=wrap;html=1;align=center;" vertex="1" parent="1">
          <mxGeometry x="460" y="250" width="100" height="40" as="geometry" />
        </mxCell>
        <mxCell id="Nohre5y979sdF1jWuuso-3" value="ID_Usuário" style="ellipse;whiteSpace=wrap;html=1;align=center;" vertex="1" parent="1">
          <mxGeometry x="1250" y="390" width="100" height="40" as="geometry" />
        </mxCell>
        <mxCell id="Nohre5y979sdF1jWuuso-4" value="Email" style="ellipse;whiteSpace=wrap;html=1;align=center;" vertex="1" parent="1">
          <mxGeometry x="1250" y="270" width="100" height="40" as="geometry" />
        </mxCell>
        <mxCell id="Nohre5y979sdF1jWuuso-5" value="CPF" style="ellipse;whiteSpace=wrap;html=1;align=center;" vertex="1" parent="1">
          <mxGeometry x="1150" y="270" width="100" height="40" as="geometry" />
        </mxCell>
      </root>
    </mxGraphModel>
  </diagram>
</mxfile>
